<svg xmlns="http://www.w3.org/2000/svg" viewBox="0 0 1000 566.24"><title>logo-black</title><path d="M-121,477.26V322.08a47.22,47.22,0,0,0-1.22-11.23,46,46,0,0,0-3-8.64,38.68,38.68,0,0,0-3.83-7L-53,281v190.4l-68,5.83ZM131.56,360.43A45.72,45.72,0,0,1,148,376.35a38.08,38.08,0,0,1,6,20,58.66,58.66,0,0,1-4.55,22.8,66.16,66.16,0,0,1-30.8,33.44A59.18,59.18,0,0,1,96.21,459l-76.3,6.54a53.61,53.61,0,0,1-22.4-2.63,51.81,51.81,0,0,1-30.8-28.16,53.07,53.07,0,0,1-4.55-22q0-9.79,5.6-20.61a59.74,59.74,0,0,1,15.75-19,50,50,0,0,1-15.75-16.5,38.56,38.56,0,0,1-5.6-19.47,58.61,58.61,0,0,1,4.55-22.79,66.17,66.17,0,0,1,30.8-33.44,59.18,59.18,0,0,1,22.4-6.47l76.3-6.54a53.61,53.61,0,0,1,22.4,2.63,51.68,51.68,0,0,1,30.8,28.15,53.1,53.1,0,0,1,4.55,22q0,10.16-6,20.82a63.08,63.08,0,0,1-16.45,18.9Zm-45.15-29.9c-1.63-1.37-4-1.93-7-1.67l-42.69,3.66a11.45,11.45,0,0,0-7.18,2.89,8,8,0,0,0-2.63,6q0,7.69,9.81,6.86l42.69-3.66q9.45-.81,9.46-8.51a6.93,6.93,0,0,0-2.46-5.57Zm-7,54.68-42.69,3.66q-9.81.84-9.81,8.54A6.68,6.68,0,0,0,29.54,403q2.63,2.06,7.18,1.66L79.41,401a10.74,10.74,0,0,0,7-2.88,8.22,8.22,0,0,0,2.46-6q0-7.69-9.46-6.89ZM350.9,400.13a72.07,72.07,0,0,1-13.42,20.33A70.43,70.43,0,0,1,318.13,435a60.14,60.14,0,0,1-22.5,6.64l-71.14,6.1a51.71,51.71,0,0,1-21.62-2.51,53.23,53.23,0,0,1-17.78-10.15,49,49,0,0,1-12.21-16.22,52.13,52.13,0,0,1-4.88-21V329.66A69.32,69.32,0,0,1,173.25,303a77.46,77.46,0,0,1,14.18-22.57,80,80,0,0,1,21-16.51,68.73,68.73,0,0,1,25.73-8.15L349,245.87v57.39l-101.07,8.66a17.29,17.29,0,0,0-8.42,2.83q-3.51,2.42-3.51,7.32v8.23l70.44-6q14.3-1.23,23.72,2.68a35.21,35.21,0,0,1,15,11.26A45,45,0,0,1,353,355.66a111.55,111.55,0,0,1,2.61,20.88,53.81,53.81,0,0,1-4.71,23.59Zm-63.1-30a42.74,42.74,0,0,0-8.4,0L236,373.85v6.3q0,4.91,3.85,6.84a16,16,0,0,0,8.75,1.53l31.85-2.73q10.85-.94,10.85-10.39,0-4.89-3.5-5.29ZM489,291.62V425.31l-68,5.83V297.45l-50,4.29v-57.4l168-14.4v57.39l-50,4.29ZM679,408.71V336.29l-57,4.88V415l-69,5.91V227.72l69-5.91V296l57-4.88V218.31l68-5.83v190.4l-68,5.83ZM-74,543.1a2.8,2.8,0,0,0-2.14,1.08,2.05,2.05,0,0,0,.71,2.44q5,4,10.1,7.44a62.41,62.41,0,0,1,10.27,8.86,24.35,24.35,0,0,1,6.62,14.54,29.43,29.43,0,0,1-2.77,15.42A33.76,33.76,0,0,1-62,605.6,32.74,32.74,0,0,1-79,611.8l-49,4.2V586.69l39.67-3.4a2.54,2.54,0,0,0,2.15-1.08c.47-1.23.24-2.1-.72-2.62a91,91,0,0,1-12.24-7.53q-4.92-3.69-7.59-5.6a21.76,21.76,0,0,1-6.53-7.84,30.4,30.4,0,0,1-3-10.29,33.59,33.59,0,0,1,.62-11.13A27.4,27.4,0,0,1-111,526.88a28.57,28.57,0,0,1,9.11-7.93A33.75,33.75,0,0,1-88,515l49-4.2V540.1l-35,3ZM84,597.89,24.39,603A84.67,84.67,0,0,1,0,601.87a49.3,49.3,0,0,1-18.79-7.79,37.18,37.18,0,0,1-12.09-14.27q-4.29-8.76-4.29-20.57a54.2,54.2,0,0,1,4.29-21.85,51.29,51.29,0,0,1,12.09-17.14A61.12,61.12,0,0,1,0,508.43a82.74,82.74,0,0,1,24.43-5.67,76.83,76.83,0,0,1,24.44,1.48,49.63,49.63,0,0,1,18.79,8.59A40.33,40.33,0,0,1,79.7,527.91,49,49,0,0,1,84,549a51,51,0,0,1-8.77,29.21l8.77-.75v20.41ZM44.57,543.64a21.06,21.06,0,0,0-3.76-7.28,16.4,16.4,0,0,0-6.62-4.81,20.68,20.68,0,0,0-9.67-1.23,23.42,23.42,0,0,0-9.75,2.81,20.62,20.62,0,0,0-6.63,5.94,25.87,25.87,0,0,0-3.85,8A32.55,32.55,0,0,0,3,556a26.71,26.71,0,0,0,1.25,8.31,18,18,0,0,0,3.85,6.65,16.36,16.36,0,0,0,6.63,4.27,23.23,23.23,0,0,0,9.75.95,26.68,26.68,0,0,0,9.67-2.53,18.79,18.79,0,0,0,6.62-5.31,23,23,0,0,0,3.76-7.4,29.62,29.62,0,0,0,1.25-8.6,30.25,30.25,0,0,0-1.25-8.67Zm143.12,20.23a50.92,50.92,0,0,1-11.32,14.18,62.37,62.37,0,0,1-16.09,10.19,57.74,57.74,0,0,1-18.6,4.83,55.26,55.26,0,0,1-18.78-1.54,48.65,48.65,0,0,1-16.17-7.42A40.1,40.1,0,0,1,95.31,571.8,31.67,31.67,0,0,1,91,555.36V499.58l35-3v54.74a12.23,12.23,0,0,0,1.26,5.57,13.35,13.35,0,0,0,3.42,4.3,13.91,13.91,0,0,0,5,2.63,16,16,0,0,0,6,.57,15.87,15.87,0,0,0,5.86-1.67,17.77,17.77,0,0,0,4.86-3.57,18.16,18.16,0,0,0,3.34-4.88,13.25,13.25,0,0,0,1.26-5.61V493.94l35-3V546.7a35.69,35.69,0,0,1-4.31,17.17Zm82,18.11-4.29-13.59-32.94,2.82-4.29,14.33-37.24,3.19,30.25-100.32,55.49-4.76,30.26,95.14L269.67,582Zm-20.76-65.34-8.77,29.21,17.54-1.5-8.77-27.71Zm158.17,24.75a51.84,51.84,0,0,1-10.83,16.5A52.49,52.49,0,0,1,380,569.13a62.69,62.69,0,0,1-20.49,5.16L314,578.19V480.45l45.47-3.9a54.5,54.5,0,0,1,19.77,1.8,45.62,45.62,0,0,1,16.47,8.43A41.25,41.25,0,0,1,406.9,501,44,44,0,0,1,411,520.47a54.07,54.07,0,0,1-3.94,20.92Zm-32.66-25.92a17.12,17.12,0,0,0-4.84-5.85,19.89,19.89,0,0,0-7.07-3.42,24.39,24.39,0,0,0-8.5-.71l-5,.43v40.64l5-.43a25.19,25.19,0,0,0,15.93-6.92q6.27-6.09,6.27-15.75a17.4,17.4,0,0,0-1.79-8Zm133.87,16.9,9.71-.83V560.8L491.89,563a14.56,14.56,0,0,1-4.95-.48,29.46,29.46,0,0,1-5.31-2,52.94,52.94,0,0,1-5.22-2.89,29.07,29.07,0,0,1-4.32-3.23L453,537.56v28.72l-35,3V471.4l59.89-5.13a37.26,37.26,0,0,1,14.21,1.39,33.51,33.51,0,0,1,11.6,6.11,29.93,29.93,0,0,1,7.83,9.85,28,28,0,0,1,2.87,12.61,35.78,35.78,0,0,1-1.34,9.65,33.5,33.5,0,0,1-4.14,9.08,34.77,34.77,0,0,1-7,7.8,37,37,0,0,1-9.8,5.78,42.55,42.55,0,0,0,7,2.91,22.94,22.94,0,0,0,9.17.92ZM479.76,496a7.33,7.33,0,0,0-4.56-1.05L453,496.83v10.56l22.2-1.9a8.39,8.39,0,0,0,4.47-1.73,5.35,5.35,0,0,0,2.15-4,4.12,4.12,0,0,0-2.06-3.76Zm156.07,27a50.26,50.26,0,0,1-12.08,17.06A60.69,60.69,0,0,1,605,551.71a84.33,84.33,0,0,1-24.43,5.59,78.35,78.35,0,0,1-24.43-1.4,49.15,49.15,0,0,1-18.8-8.41,39.46,39.46,0,0,1-12.08-15,48.65,48.65,0,0,1-4.3-20.93,53.53,53.53,0,0,1,4.3-21.76,51.55,51.55,0,0,1,12.08-17.06A60,60,0,0,1,556.09,461a84.65,84.65,0,0,1,24.43-5.58,78.35,78.35,0,0,1,24.43,1.4,48.38,48.38,0,0,1,18.8,8.5,40.39,40.39,0,0,1,12.08,15,48.35,48.35,0,0,1,4.3,21,53.54,53.54,0,0,1-4.3,21.67Zm-35.17-27A18.4,18.4,0,0,0,596.9,489a17.81,17.81,0,0,0-6.62-4.71,20.37,20.37,0,0,0-9.76-1.22,23.27,23.27,0,0,0-9.75,2.8,21.72,21.72,0,0,0-6.63,5.76,22.53,22.53,0,0,0-3.76,7.84,34.79,34.79,0,0,0-1.16,8.87,31.51,31.51,0,0,0,1.16,8.58,18.4,18.4,0,0,0,3.76,7.11,16.93,16.93,0,0,0,6.63,4.62,21.13,21.13,0,0,0,9.75,1.14,23.51,23.51,0,0,0,9.76-2.81,21.66,21.66,0,0,0,6.62-5.76,22.62,22.62,0,0,0,3.76-7.75,33.76,33.76,0,0,0,1.16-8.78,31.57,31.57,0,0,0-1.16-8.58ZM713.12,544a50.18,50.18,0,0,0-9.66-23.14Q695.6,510.23,682,503.88v42.76l-35,3V451.92A54.45,54.45,0,0,1,662.38,453a89.1,89.1,0,0,1,17.17,5.42,126.24,126.24,0,0,1,17.35,9.06,118,118,0,0,1,16.1,12V446.25l35-3V541l-34.88,3Z" transform="translate(190 -112.53)"/><path d="M760,601.71,745,603h0l-6.19.24A8.92,8.92,0,0,0,736,604h0l-5-.09v-.2c-1.25.18-2.48.36-3.4.44a13.87,13.87,0,0,0-4.75,1.26,14.36,14.36,0,0,0-4,2.74,13.44,13.44,0,0,0-2.8,3.89,10.7,10.7,0,0,0-1,4.69c0,3.6,1.16,6.33,3.5,8.2a12.08,12.08,0,0,0,8.9,2.34L730,627V615l20-1.72V641l-27,2.32a33.64,33.64,0,0,1-11.72-.89,21.88,21.88,0,0,1-8.94-4.69,21.5,21.5,0,0,1-5.66-8.16,29.6,29.6,0,0,1-2-11.25A28.76,28.76,0,0,1,697,606.75a29.21,29.21,0,0,1,6.4-9.34,33.61,33.61,0,0,1,9.54-6.47c3.64-1.67,7.28-2,11.52-2.38,3.17-.27,6.24-1,8.59-.89l.91.07,24.26-2.08C777.44,584,793,567.12,793,547.92V160.6c0-19.32-15.66-33.63-35-32l-.91.08-2.56.22-3.08.27h-.11l-8.3.72-13.57,1.17-13.31,1.15-4.22.37-3.78.32-9.62.83-10.24.89-13.82,1.19-7.42.64-3.56.31-.21,0-30.21,2.6-6.26.54-21.1,1.81-3.92.34-8.14.7-.94.08L567.84,145l-15.14,1.3-8,.69-6.75.58-25.67,2.2-9.2.79-11.85,1-8.41.72L404.75,159l-10.7.92-33.72,2.87L342.65,165a1.53,1.53,0,0,0-1.2.6,1.14,1.14,0,0,0,.4,1.36c1.86,1.51,3.75,2.9,5.64,4.17a33.59,33.59,0,0,1,5.75,4.95,13.63,13.63,0,0,1,3.7,8.13,16.47,16.47,0,0,1-1.55,8.62,18.92,18.92,0,0,1-6,7.11,18.36,18.36,0,0,1-9.54,3.47l-27.38,2.34-13.89,1.19a8,8,0,0,1-2.74-.26,16.14,16.14,0,0,1-2.95-1.1,28.12,28.12,0,0,1-2.9-1.6,16.64,16.64,0,0,1-2.4-1.79L277,192.77v16l-20,1.72V155.84L290.34,153a20.63,20.63,0,0,1,7.9.77,18.73,18.73,0,0,1,6.46,3.4,16.59,16.59,0,0,1,4.35,5.48,15.54,15.54,0,0,1,1.61,7,20.06,20.06,0,0,1-.75,5.37,18.49,18.49,0,0,1-2.31,5.06,19.6,19.6,0,0,1-3.9,4.34,20.68,20.68,0,0,1-5.46,3.21,23.45,23.45,0,0,0,3.91,1.62,12.61,12.61,0,0,0,5.1.52l5.41-.47,21.62-1.85a1.41,1.41,0,0,0,1.2-.6c.27-.69.13-1.18-.4-1.47a51.22,51.22,0,0,1-6.86-4.22c-1.83-1.38-3.25-2.42-4.25-3.14a12.06,12.06,0,0,1-3.65-4.39,16.93,16.93,0,0,1-1.71-5.76,19.12,19.12,0,0,1,.35-6.24,15.4,15.4,0,0,1,2.61-5.77,15.89,15.89,0,0,1,5.1-4.45,21.55,21.55,0,0,1,8.32-2.58l4-.3v.26l421-36.09c27.61-2.36,50,18.1,50,45.72v389c0,27.61-22.39,51.92-50,54.28ZM292,169.51a4.1,4.1,0,0,0-2.55-.59L277,170v5.9l12.4-1.07a4.7,4.7,0,0,0,2.5-1,3,3,0,0,0,1.2-2.25,2.28,2.28,0,0,0-1.15-2.1ZM229.69,205l-18.4,1.57-2.4,8-20.8,1.78L205,160.32l31-2.65,16.9,53.15-20.8,1.78-2.4-7.59Zm-9.2-28.91-4.9,16.32,9.8-.85-4.9-15.47Zm-61.9,42.8-5.8-18.3L147,219.9l-19,1.63-16.9-53.16,19.1-1.63,6.4,20.35,6.5-21.46,19.5-1.67,6.4,20.35,6.5-21.46,19-1.62-16.9,56-19,1.63ZM61.8,226.71a16.08,16.08,0,0,1-2.95-1.09A29.05,29.05,0,0,1,56,224a16,16,0,0,1-2.39-1.79L43,212.87v16l-20,1.71V175.81l33.54-2.88a20.94,20.94,0,0,1,8,.78A18.74,18.74,0,0,1,71,177.13a16.6,16.6,0,0,1,4.38,5.52A15.55,15.55,0,0,1,77,189.71a20.06,20.06,0,0,1-.75,5.41,18.47,18.47,0,0,1-2.32,5.08A19.59,19.59,0,0,1,70,204.56a20.94,20.94,0,0,1-5.49,3.24,23.55,23.55,0,0,0,3.92,1.63,12.83,12.83,0,0,0,5.14.52l5.44-.47v16.26L64.54,227a8.23,8.23,0,0,1-2.74-.27ZM58,189.57A4.1,4.1,0,0,0,55.4,189L43,190.05V196l12.4-1.07a4.7,4.7,0,0,0,2.5-1,3,3,0,0,0,1.2-2.25,2.28,2.28,0,0,0-1.15-2.1Zm-62.26,35.5-18.4,1.57-2.4,8-20.8,1.78L-29,180.38l31-2.65,16.9,53.15-20.8,1.78-2.4-7.59Zm-9.21-28.91-4.9,16.32,9.81-.84-4.91-15.48ZM-55,237.24l-19,1.63V200.44l-6.54.56-19.72,1.69a1.61,1.61,0,0,0-1.21.61,1.15,1.15,0,0,0,.4,1.37c1.88,1.52,3.77,2.92,5.69,4.19a35,35,0,0,1,5.78,5A13.7,13.7,0,0,1-85.88,222a16.57,16.57,0,0,1-1.55,8.68,19.1,19.1,0,0,1-6,7.16,20.34,20.34,0,0,1-10.1,3.61l-15.6,1.29c-11.83,1.1-18.61,1.64-18.61,1.64-19.45,1.67-35.22,18.79-35.22,38.24V630.41c0,19.33,15.67,33.65,35,32l585-50.15v.44l1-.08,8.7,11.65,8.8-13.15,21.9-1.88-19.2,29,19.2,25.65-24,2.06-8.7-11.66-8.8,13.16L424,669.28l19.2-28.95-8.26-11L-140,678.58c-27.62,2.37-50-18.1-50-45.71v-350c0-27.57,22.35-51.84,49.93-54.2,0,0,3.2-.23,9.07-.72v-.58l22.2-1.9a1.39,1.39,0,0,0,1.2-.61c.27-.68.13-1.17-.4-1.46a51.09,51.09,0,0,1-6.85-4.21c-1.83-1.38-3.25-2.42-4.25-3.14a12.15,12.15,0,0,1-3.65-4.39,16.8,16.8,0,0,1-1.7-5.75,18.79,18.79,0,0,1,.35-6.23,15.31,15.31,0,0,1,2.6-5.77,16.09,16.09,0,0,1,5.1-4.44,18.73,18.73,0,0,1,7.8-2.22l19.6-1.68,48-4.11v16.4L-55,199v38.22ZM521,641.11l-30,2.57V630.57L521,628v13.11Zm29.5-16.38,6.5-21.46,19.5-1.67L582.9,622l6.5-21.45,19-1.63-16.9,56-19,1.63-5.8-18.31-5.8,19.3-19,1.63L525,606l19.1-1.64,6.4,20.35ZM631,652.25,611,654V598l20-1.72v56Zm40-33.61V593.53l20-1.71v54.64l-19.55,1.68L654,625.77v23.81l-20,1.71V596.65L653.55,595,671,618.64Z" transform="translate(190 -112.53)" fill-rule="evenodd"/></svg>