<svg id="Layer_1" data-name="Layer 1" xmlns="http://www.w3.org/2000/svg" viewBox="0 0 1005.03 573.35"><defs><style>.cls-1{opacity:0.2;}.cls-2,.cls-4{fill-rule:evenodd;}.cls-3,.cls-4{fill:#fa0;}</style></defs><title>logo-color-shadow</title><g class="cls-1"><path d="M-108.21,469.72V314.53a46.66,46.66,0,0,0-1.23-11.22,46.05,46.05,0,0,0-3-8.64,39.41,39.41,0,0,0-3.83-7l76-14.19V463.89l-68,5.83ZM144.35,352.89a45.72,45.72,0,0,1,16.45,15.92,38.17,38.17,0,0,1,5.95,20,58.57,58.57,0,0,1-4.55,22.79A66.05,66.05,0,0,1,131.4,445a59,59,0,0,1-22.4,6.47L32.7,458a53.43,53.43,0,0,1-22.4-2.63,51.74,51.74,0,0,1-30.8-28.16,53,53,0,0,1-4.55-22q0-9.78,5.6-20.6a59.89,59.89,0,0,1,15.75-19,49.84,49.84,0,0,1-15.75-16.5A38.51,38.51,0,0,1-25,329.61a58.61,58.61,0,0,1,4.55-22.79,66.05,66.05,0,0,1,30.8-33.44,59.13,59.13,0,0,1,22.4-6.47l76.3-6.54A53.61,53.61,0,0,1,131.4,263a51.74,51.74,0,0,1,30.8,28.16,53.07,53.07,0,0,1,4.55,22q0,10.15-5.95,20.81a63.24,63.24,0,0,1-16.45,18.91ZM99.2,323q-2.46-2.07-7-1.68L49.5,325a11.5,11.5,0,0,0-7.18,2.89,8,8,0,0,0-2.62,6q0,7.71,9.8,6.86l42.7-3.66q9.45-.81,9.45-8.51A6.91,6.91,0,0,0,99.2,323Zm-7,54.67-42.7,3.66q-9.81.84-9.8,8.54a6.65,6.65,0,0,0,2.62,5.55q2.63,2.05,7.18,1.66l42.7-3.66a10.75,10.75,0,0,0,7-2.87,8.24,8.24,0,0,0,2.45-6q0-7.69-9.45-6.89Zm271.49,14.93a72.28,72.28,0,0,1-13.42,20.33,71,71,0,0,1-19.36,14.56,60,60,0,0,1-22.49,6.64l-71.14,6.1a52,52,0,0,1-21.62-2.51,53.2,53.2,0,0,1-17.79-10.16,48.86,48.86,0,0,1-12.2-16.21,51.88,51.88,0,0,1-4.88-21v-68.2a69.23,69.23,0,0,1,5.25-26.7,77.25,77.25,0,0,1,14.18-22.57,80.16,80.16,0,0,1,21-16.51A68.92,68.92,0,0,1,247,248.17l114.84-9.84v57.39l-101.07,8.66a17.19,17.19,0,0,0-8.42,2.83c-2.35,1.6-3.51,4-3.51,7.32v8.23l70.44-6q14.29-1.23,23.71,2.67a35.34,35.34,0,0,1,15,11.27,44.91,44.91,0,0,1,7.84,17.46A112.28,112.28,0,0,1,368.4,369a53.83,53.83,0,0,1-4.71,23.6Zm-63.11-30a43.53,43.53,0,0,0-8.4,0l-43.39,3.72v6.3q0,4.9,3.85,6.85a15.94,15.94,0,0,0,8.75,1.52l31.85-2.73c7.22-.62,10.85-4.08,10.85-10.38q0-4.89-3.51-5.3Zm201.21-78.49v133.7l-68,5.83V289.91l-50,4.29V236.8l168-14.4v57.38l-50,4.29Zm190,117.1V328.74l-57,4.89v73.83l-69,5.92V220.18l69-5.91v74.21l57-4.89V210.76l68-5.83V395.34l-68,5.83Zm-753,134.39a2.85,2.85,0,0,0-2.15,1.07,2,2,0,0,0,.72,2.44q5,4,10.09,7.45a61.5,61.5,0,0,1,10.28,8.86,24.39,24.39,0,0,1,6.61,14.53,29.25,29.25,0,0,1-2.77,15.43,33.64,33.64,0,0,1-10.72,12.72,32.86,32.86,0,0,1-17.07,6.2l-49,4.19V579.14l39.67-3.4a2.49,2.49,0,0,0,2.14-1.08c.48-1.22.24-2.1-.71-2.61a89.78,89.78,0,0,1-12.24-7.53q-4.92-3.69-7.6-5.61a21.65,21.65,0,0,1-6.52-7.84,30.29,30.29,0,0,1-3-10.28,33.38,33.38,0,0,1,.63-11.14,27.42,27.42,0,0,1,4.64-10.31,28.39,28.39,0,0,1,9.12-7.93,33.55,33.55,0,0,1,13.94-4l49-4.19v29.31l-35,3Zm158,54.78-59.61,5.11a84.67,84.67,0,0,1-24.43-1.12A49.58,49.58,0,0,1-6,586.54a37.23,37.23,0,0,1-12.08-14.27q-4.31-8.76-4.3-20.57a54,54,0,0,1,4.3-21.85A51.3,51.3,0,0,1-6,512.7a61.46,61.46,0,0,1,18.8-11.81,82.36,82.36,0,0,1,24.43-5.68,76.75,76.75,0,0,1,24.43,1.49,49.52,49.52,0,0,1,18.8,8.59,40.25,40.25,0,0,1,12.08,15.08,49.06,49.06,0,0,1,4.3,21.11A50.91,50.91,0,0,1,88,570.69l8.78-.75v20.4ZM57.35,536.1a21,21,0,0,0-3.75-7.29A16.51,16.51,0,0,0,47,524a20.51,20.51,0,0,0-9.66-1.23,23.36,23.36,0,0,0-9.76,2.81,20.78,20.78,0,0,0-6.62,5.93,25.81,25.81,0,0,0-3.85,8,32.17,32.17,0,0,0-1.25,8.88,26.4,26.4,0,0,0,1.25,8.3,17.71,17.71,0,0,0,3.85,6.65,16.19,16.19,0,0,0,6.62,4.27,23.13,23.13,0,0,0,9.76,1A26.43,26.43,0,0,0,47,566.08a18.74,18.74,0,0,0,6.63-5.32,22.72,22.72,0,0,0,3.75-7.39,29.41,29.41,0,0,0,1.26-8.61,29.89,29.89,0,0,0-1.26-8.66Zm143.12,20.23a50.88,50.88,0,0,1-11.32,14.18,62.31,62.31,0,0,1-16.08,10.19,58.26,58.26,0,0,1-18.6,4.83A55.32,55.32,0,0,1,135.68,584a48.65,48.65,0,0,1-16.17-7.42,40.1,40.1,0,0,1-11.41-12.32,31.51,31.51,0,0,1-4.31-16.43V492l35-3v54.74a12.07,12.07,0,0,0,1.26,5.57,13.24,13.24,0,0,0,3.42,4.3,13.63,13.63,0,0,0,5.05,2.64,16.44,16.44,0,0,0,5.94.57,15.78,15.78,0,0,0,5.86-1.68,17.68,17.68,0,0,0,8.2-8.45,13.19,13.19,0,0,0,1.27-5.6V486.4l35-3v55.76a35.61,35.61,0,0,1-4.32,17.17Zm82,18.11-4.3-13.6-32.93,2.83L240.93,578l-37.23,3.19L234,480.86l55.49-4.76,30.25,95.15-37.23,3.19Zm-20.77-65.35-8.76,29.21,17.54-1.5-8.78-27.71Zm158.17,24.75A51.44,51.44,0,0,1,409,550.35a52.56,52.56,0,0,1-16.28,11.24,63.26,63.26,0,0,1-20.5,5.16l-45.46,3.89V472.91l45.46-3.9a54.55,54.55,0,0,1,19.78,1.8,45.7,45.7,0,0,1,16.47,8.43,41.4,41.4,0,0,1,11.19,14.26,44.11,44.11,0,0,1,4.11,19.42,53.85,53.85,0,0,1-3.94,20.92ZM387.2,507.93a16.92,16.92,0,0,0-4.83-5.86,20.23,20.23,0,0,0-7.07-3.42,24.39,24.39,0,0,0-8.5-.7l-5,.43V539l5-.43a25.15,25.15,0,0,0,15.93-6.91q6.25-6.09,6.26-15.75a17.37,17.37,0,0,0-1.79-8Zm133.87,16.9,9.72-.84v29.27l-26.11,2.24a14.79,14.79,0,0,1-4.95-.48,29.46,29.46,0,0,1-5.31-2,52,52,0,0,1-5.23-2.89,29.61,29.61,0,0,1-4.32-3.23L465.79,530v28.71l-35,3V463.86l59.89-5.13a37.28,37.28,0,0,1,14.21,1.39,33.43,33.43,0,0,1,11.6,6.11,29.92,29.92,0,0,1,7.82,9.85,27.88,27.88,0,0,1,2.88,12.61,35.4,35.4,0,0,1-1.35,9.65,32.91,32.91,0,0,1-4.14,9.08,35.14,35.14,0,0,1-7,7.79,37.47,37.47,0,0,1-9.8,5.79,42.92,42.92,0,0,0,7,2.91,23,23,0,0,0,9.17.92Zm-28.52-36.41a7.44,7.44,0,0,0-4.57-1l-22.19,1.9v10.57L488,497.94a8.44,8.44,0,0,0,4.48-1.72,5.35,5.35,0,0,0,2.15-4,4.13,4.13,0,0,0-2.06-3.76Zm156.07,27.06a50.49,50.49,0,0,1-12.08,17.06,60.81,60.81,0,0,1-18.8,11.63,84.33,84.33,0,0,1-24.43,5.59,78.72,78.72,0,0,1-24.44-1.4A49.26,49.26,0,0,1,550.08,540,39.58,39.58,0,0,1,538,525,48.66,48.66,0,0,1,533.7,504,53.56,53.56,0,0,1,538,482.27a51.69,51.69,0,0,1,12.09-17,59.94,59.94,0,0,1,18.79-11.73,84.07,84.07,0,0,1,24.44-5.58,78.36,78.36,0,0,1,24.43,1.39,48.46,48.46,0,0,1,18.8,8.51,40.49,40.49,0,0,1,12.08,15,48.49,48.49,0,0,1,4.29,21,53.7,53.7,0,0,1-4.29,21.67Zm-35.18-27a18.41,18.41,0,0,0-3.75-7.1,18,18,0,0,0-6.63-4.72,20.33,20.33,0,0,0-9.75-1.22,23.51,23.51,0,0,0-9.76,2.81,21.66,21.66,0,0,0-6.62,5.76,22.27,22.27,0,0,0-3.76,7.84,34.35,34.35,0,0,0-1.16,8.87,31.18,31.18,0,0,0,1.16,8.58,18.27,18.27,0,0,0,3.76,7.11,17,17,0,0,0,6.62,4.62,21.2,21.2,0,0,0,9.76,1.13,23.46,23.46,0,0,0,9.75-2.8,22,22,0,0,0,6.63-5.76,22.6,22.6,0,0,0,3.75-7.75,33.35,33.35,0,0,0,1.17-8.78,31.21,31.21,0,0,0-1.17-8.59Zm112.47,47.91a50.35,50.35,0,0,0-9.66-23.14q-7.87-10.59-21.46-16.94V539.1l-35,3V444.37a54.87,54.87,0,0,1,15.38,1.1,89,89,0,0,1,17.17,5.41A126.9,126.9,0,0,1,709.69,460a117.71,117.71,0,0,1,16.1,12V438.7l35-3v97.73l-34.88,3Z" transform="translate(182.25 -97.87)"/><path class="cls-2" d="M772.78,594.17l-15,1.29h0l-6.18.23a9,9,0,0,0-2.81.77h0l-5-.1v-.19c-1.26.17-2.49.36-3.41.44a14.1,14.1,0,0,0-4.74,1.25,14.28,14.28,0,0,0-4,2.74,13.71,13.71,0,0,0-2.81,3.9,10.83,10.83,0,0,0-1,4.69c0,3.59,1.16,6.33,3.5,8.2a12.06,12.06,0,0,0,8.89,2.33l2.61-.24V607.4l20-1.71v27.8l-27,2.32a33.43,33.43,0,0,1-11.72-.88,21.79,21.79,0,0,1-8.93-4.7,21.46,21.46,0,0,1-5.66-8.15,29.6,29.6,0,0,1-2-11.25,28.91,28.91,0,0,1,8.74-21,33.45,33.45,0,0,1,9.53-6.48c3.64-1.67,7.28-2,11.52-2.38,3.18-.27,6.24-1,8.59-.88.31,0,.61,0,.92.07L771,578.12c19.19-1.65,34.75-18.54,34.75-37.74V153.05c0-19.31-15.65-33.62-35-32l-.91.08-2.55.22-3.08.27h-.12l-8.29.72-13.57,1.17L729,124.7l-4.21.36-3.79.33-9.62.83-10.23.88-13.83,1.2-7.41.63-3.56.31-.21,0-30.21,2.61-6.26.53-21.11,1.82-3.91.34-8.15.7-.93.08-24.92,2.14-15.13,1.3-8,.69-6.76.58-25.67,2.2-9.2.79-11.84,1-8.41.72-78.11,6.68-10.69.91-33.72,2.88-17.69,2.16a1.63,1.63,0,0,0-1.2.6,1.16,1.16,0,0,0,.4,1.37c1.87,1.51,3.75,2.89,5.65,4.16a34.46,34.46,0,0,1,5.74,5,13.63,13.63,0,0,1,3.7,8.13,16.39,16.39,0,0,1-1.55,8.63,18.89,18.89,0,0,1-6,7.11,18.35,18.35,0,0,1-9.55,3.46l-27.37,2.35-13.89,1.19a8.27,8.27,0,0,1-2.75-.26,16.91,16.91,0,0,1-2.95-1.1,28,28,0,0,1-2.89-1.6,16.28,16.28,0,0,1-2.4-1.79l-10.59-9.39v16l-20,1.72V148.3l33.33-2.86a20.68,20.68,0,0,1,7.91.78,18.43,18.43,0,0,1,6.45,3.4,16.62,16.62,0,0,1,4.36,5.48,15.5,15.5,0,0,1,1.6,7,19.77,19.77,0,0,1-.75,5.37,18.4,18.4,0,0,1-2.3,5,19.45,19.45,0,0,1-3.91,4.34A20.49,20.49,0,0,1,311,180.1a23.32,23.32,0,0,0,3.9,1.62,12.86,12.86,0,0,0,5.11.51l5.4-.46,21.62-1.86a1.41,1.41,0,0,0,1.21-.6c.26-.69.13-1.18-.4-1.46a50.59,50.59,0,0,1-6.86-4.22c-1.84-1.38-3.25-2.43-4.25-3.14a12.16,12.16,0,0,1-3.66-4.39,16.92,16.92,0,0,1-1.7-5.76,18.85,18.85,0,0,1,.35-6.24,15.43,15.43,0,0,1,2.6-5.78,16,16,0,0,1,5.11-4.44,21.5,21.5,0,0,1,8.32-2.59l4-.29v.26l421-36.09c27.62-2.37,50,18.1,50,45.71v389c0,27.62-22.38,51.92-50,54.29ZM304.74,162a4.09,4.09,0,0,0-2.55-.58l-12.4,1.06v5.9l12.4-1.06a4.66,4.66,0,0,0,2.49-1,3,3,0,0,0,1.2-2.26,2.31,2.31,0,0,0-1.14-2.1Zm-62.27,35.5L224.07,199l-2.4,8-20.8,1.78,16.9-56.05,31-2.66,16.9,53.16-20.8,1.78-2.4-7.6Zm-9.2-28.91-4.9,16.32,9.8-.84-4.9-15.48Zm-61.9,42.81-5.8-18.3-5.8,19.29-19,1.63-16.9-53.15,19.1-1.64,6.4,20.36,6.5-21.46,19.5-1.67,6.4,20.35,6.5-21.46,19-1.63-16.9,56-19,1.63Zm-96.79,7.81a15.61,15.61,0,0,1-2.94-1.1,27.9,27.9,0,0,1-2.89-1.59,16.7,16.7,0,0,1-2.39-1.79l-10.57-9.37v16l-20,1.72V168.26l33.53-2.87a20.9,20.9,0,0,1,8,.78,18.79,18.79,0,0,1,6.5,3.42,16.72,16.72,0,0,1,4.38,5.52,15.65,15.65,0,0,1,1.61,7.06,20,20,0,0,1-.75,5.4,18.64,18.64,0,0,1-2.32,5.08A19.23,19.23,0,0,1,82.77,197a20.94,20.94,0,0,1-5.49,3.24,24.19,24.19,0,0,0,3.93,1.63,13,13,0,0,0,5.14.52l5.44-.47v16.25l-14.47,1.24a8,8,0,0,1-2.74-.26ZM70.73,182a4.06,4.06,0,0,0-2.55-.58L55.79,182.5v5.9l12.39-1.06a4.67,4.67,0,0,0,2.5-1,3,3,0,0,0,1.2-2.26,2.3,2.3,0,0,0-1.15-2.1ZM8.47,217.53l-18.4,1.57-2.4,8-20.8,1.78,16.9-56,31-2.66,16.9,53.16-20.8,1.78-2.4-7.59Zm-9.2-28.92-4.9,16.32,9.8-.84-4.9-15.48ZM-42.21,229.7l-19,1.63V192.9l-6.55.56-19.72,1.69a1.58,1.58,0,0,0-1.21.61,1.16,1.16,0,0,0,.41,1.37c1.87,1.52,3.77,2.91,5.68,4.19a34.56,34.56,0,0,1,5.79,5,13.73,13.73,0,0,1,3.72,8.18,16.51,16.51,0,0,1-1.56,8.69,19.08,19.08,0,0,1-6,7.16A20.38,20.38,0,0,1-90.78,234l-15.6,1.29c-11.83,1.09-18.62,1.64-18.62,1.64-19.45,1.67-35.21,18.79-35.21,38.24V622.86c0,19.34,15.66,33.66,35,32l585-50.15v.45l1-.08,8.69,11.65,8.8-13.15,21.9-1.88L481,630.64l19.2,25.66-24,2.06-8.71-11.66-8.8,13.16-21.9,1.87L456,632.79l-8.26-11L-127.21,671c-27.62,2.37-50-18.09-50-45.71v-350c0-27.57,22.35-51.84,49.92-54.21,0,0,3.2-.22,9.08-.71v-.58l22.2-1.9a1.44,1.44,0,0,0,1.2-.61c.26-.69.13-1.17-.4-1.46a49.44,49.44,0,0,1-6.85-4.22c-1.84-1.37-3.25-2.42-4.25-3.13a12.14,12.14,0,0,1-3.65-4.39,16.93,16.93,0,0,1-1.7-5.75,18.51,18.51,0,0,1,.35-6.23,15.27,15.27,0,0,1,2.6-5.78,15.73,15.73,0,0,1,5.1-4.43,18.73,18.73,0,0,1,7.8-2.22l19.6-1.68,48-4.12v16.41l-14,1.2V229.7Zm576,403.86-30,2.58V623l30-2.57v13.11Zm29.5-16.37,6.5-21.46,19.5-1.67,6.4,20.35,6.5-21.46,19-1.62-16.9,56-19,1.63-5.79-18.3-5.8,19.3-19,1.63-16.9-53.16,19.1-1.63,6.4,20.35Zm80.49,27.52-20,1.71v-56l20-1.71v56Zm40-33.61V586l20-1.72v54.65l-19.56,1.68-17.44-22.37V642l-20,1.71V589.1l19.55-1.67,17.45,23.67Z" transform="translate(182.25 -97.87)"/></g><path class="cls-3" d="M-113.25,462.6V307.42a47.2,47.2,0,0,0-1.22-11.22,46,46,0,0,0-3-8.64,38.78,38.78,0,0,0-3.83-7l76-14.19V456.78l-68,5.82ZM139.31,345.78a45.72,45.72,0,0,1,16.45,15.92,38,38,0,0,1,6,20,58.57,58.57,0,0,1-4.55,22.79,66.05,66.05,0,0,1-30.8,33.44,59,59,0,0,1-22.4,6.47l-76.3,6.54a53.45,53.45,0,0,1-22.4-2.63,51.81,51.81,0,0,1-30.8-28.16,53,53,0,0,1-4.55-22q0-9.8,5.6-20.6a59.78,59.78,0,0,1,15.75-19A50,50,0,0,1-24.49,342a38.51,38.51,0,0,1-5.6-19.47,58.61,58.61,0,0,1,4.55-22.79,66.17,66.17,0,0,1,30.8-33.44,59.18,59.18,0,0,1,22.4-6.47l76.3-6.54a53.61,53.61,0,0,1,22.4,2.63,51.74,51.74,0,0,1,30.8,28.16,53.07,53.07,0,0,1,4.55,22q0,10.15-6,20.81a63.24,63.24,0,0,1-16.45,18.91Zm-45.15-29.9c-1.63-1.38-4-1.94-7-1.68l-42.69,3.66a11.5,11.5,0,0,0-7.18,2.89,8,8,0,0,0-2.63,6q0,7.71,9.81,6.86L87.16,330q9.45-.81,9.46-8.51a6.92,6.92,0,0,0-2.46-5.56Zm-7,54.67-42.69,3.66q-9.81.84-9.81,8.54a6.66,6.66,0,0,0,2.63,5.55q2.63,2.06,7.18,1.66l42.69-3.66a10.73,10.73,0,0,0,7-2.87,8.25,8.25,0,0,0,2.46-6q0-7.69-9.46-6.89Zm271.49,14.93a72.07,72.07,0,0,1-13.42,20.33,70.83,70.83,0,0,1-19.35,14.56,60.14,60.14,0,0,1-22.5,6.64l-71.14,6.1a52,52,0,0,1-21.62-2.51,53.25,53.25,0,0,1-17.78-10.16,49,49,0,0,1-12.21-16.21,52.2,52.2,0,0,1-4.88-21V315A69.23,69.23,0,0,1,181,288.3a77.46,77.46,0,0,1,14.18-22.57,80,80,0,0,1,21-16.51,68.92,68.92,0,0,1,25.73-8.16l114.83-9.84V288.6l-101.07,8.67a17.09,17.09,0,0,0-8.42,2.83q-3.51,2.4-3.51,7.32v8.22l70.44-6q14.3-1.23,23.72,2.67a35.31,35.31,0,0,1,15,11.27A44.92,44.92,0,0,1,360.75,341a111.45,111.45,0,0,1,2.61,20.87,53.86,53.86,0,0,1-4.71,23.6Zm-63.1-30a43.54,43.54,0,0,0-8.4,0l-43.4,3.72v6.3q0,4.9,3.85,6.85a16,16,0,0,0,8.75,1.52l31.85-2.73q10.85-.93,10.85-10.38,0-4.89-3.5-5.3ZM496.75,277v133.7l-68,5.83V282.8l-50,4.29v-57.4l168-14.4v57.38l-50,4.29Zm190,117.09V321.63l-57,4.89v73.83l-69,5.92V213.07l69-5.91v74.21l57-4.89V203.65l68-5.83V388.23l-68,5.82Zm-753,134.4a2.82,2.82,0,0,0-2.14,1.07,2,2,0,0,0,.71,2.44q5,4,10.1,7.45a61.46,61.46,0,0,1,10.27,8.86,24.32,24.32,0,0,1,6.62,14.53,29.45,29.45,0,0,1-2.77,15.43A33.76,33.76,0,0,1-54.22,591a32.82,32.82,0,0,1-17.06,6.2l-49,4.19V572l39.67-3.4a2.51,2.51,0,0,0,2.15-1.08c.47-1.22.24-2.1-.72-2.62a90.06,90.06,0,0,1-12.24-7.52q-4.92-3.69-7.59-5.61a21.68,21.68,0,0,1-6.53-7.84,30.28,30.28,0,0,1-3-10.28,33.64,33.64,0,0,1,.62-11.14,27.28,27.28,0,0,1,4.65-10.31,28.33,28.33,0,0,1,9.11-7.93,33.6,33.6,0,0,1,13.94-4l49-4.2v29.31l-35,3Zm158,54.78-59.61,5.11a84.69,84.69,0,0,1-24.43-1.12,49.46,49.46,0,0,1-18.79-7.79,37.26,37.26,0,0,1-12.09-14.27q-4.29-8.76-4.29-20.57a54.16,54.16,0,0,1,4.29-21.85,51.33,51.33,0,0,1,12.09-17.15A61.1,61.1,0,0,1,7.71,493.78a82.43,82.43,0,0,1,24.43-5.68,76.81,76.81,0,0,1,24.44,1.49,49.48,49.48,0,0,1,18.79,8.59,40.25,40.25,0,0,1,12.08,15.08,48.92,48.92,0,0,1,4.3,21.11A51,51,0,0,1,83,563.58l8.77-.75v20.4ZM52.32,529a21.19,21.19,0,0,0-3.76-7.29,16.48,16.48,0,0,0-6.62-4.8,20.55,20.55,0,0,0-9.67-1.23,23.27,23.27,0,0,0-9.75,2.81,20.71,20.71,0,0,0-6.63,5.93,25.92,25.92,0,0,0-3.85,8,32.55,32.55,0,0,0-1.25,8.88,26.69,26.69,0,0,0,1.25,8.3,17.92,17.92,0,0,0,3.85,6.65,16.16,16.16,0,0,0,6.63,4.27,23.07,23.07,0,0,0,9.75,1A26.29,26.29,0,0,0,41.94,559a18.57,18.57,0,0,0,6.62-5.31,22.94,22.94,0,0,0,3.76-7.39,29.74,29.74,0,0,0,1.25-8.61A30.23,30.23,0,0,0,52.32,529Zm143.12,20.23a51.06,51.06,0,0,1-11.32,14.18A62.37,62.37,0,0,1,168,573.59a58.26,58.26,0,0,1-18.6,4.83,55.26,55.26,0,0,1-18.78-1.54,48.65,48.65,0,0,1-16.17-7.42,40.13,40.13,0,0,1-11.42-12.32,31.61,31.61,0,0,1-4.31-16.43V484.92l35-3v54.74a12.2,12.2,0,0,0,1.26,5.57,13.24,13.24,0,0,0,3.42,4.3,13.76,13.76,0,0,0,5,2.63,16.25,16.25,0,0,0,6,.58,15.89,15.89,0,0,0,5.86-1.68,17.77,17.77,0,0,0,4.86-3.57,18.16,18.16,0,0,0,3.34-4.88,13.19,13.19,0,0,0,1.26-5.61V479.29l35-3v55.76a35.72,35.72,0,0,1-4.31,17.17Zm82,18.11-4.29-13.6-32.94,2.83-4.29,14.33-37.24,3.19,30.25-100.33L284.4,469l30.26,95.15-37.24,3.19ZM256.66,502l-8.77,29.21,17.54-1.5L256.66,502Zm158.17,24.75A51.78,51.78,0,0,1,404,543.24a52.49,52.49,0,0,1-16.29,11.24,63.2,63.2,0,0,1-20.49,5.16l-45.47,3.89V465.8l45.47-3.9A54.5,54.5,0,0,1,387,463.7a45.62,45.62,0,0,1,16.47,8.43,41.07,41.07,0,0,1,11.19,14.26,44,44,0,0,1,4.12,19.42,54,54,0,0,1-3.94,20.92Zm-32.66-25.92a17.12,17.12,0,0,0-4.84-5.85,20.23,20.23,0,0,0-7.07-3.42,24.39,24.39,0,0,0-8.5-.7l-5,.43V531.9l5-.43a25.13,25.13,0,0,0,15.93-6.91Q384,518.47,384,508.8a17.43,17.43,0,0,0-1.79-8ZM516,517.72l9.71-.84v29.27l-26.11,2.24a14.81,14.81,0,0,1-4.95-.48,28.78,28.78,0,0,1-5.31-2,50.87,50.87,0,0,1-5.22-2.88,29.07,29.07,0,0,1-4.32-3.23l-19.09-16.91v28.71l-35,3V456.75l59.89-5.13A37.06,37.06,0,0,1,499.85,453a33.34,33.34,0,0,1,11.6,6.11,29.72,29.72,0,0,1,7.83,9.85,28,28,0,0,1,2.87,12.61,35.83,35.83,0,0,1-1.34,9.65,33.5,33.5,0,0,1-4.14,9.08,34.94,34.94,0,0,1-7,7.79,37.31,37.31,0,0,1-9.8,5.79,43.48,43.48,0,0,0,7,2.9,22.94,22.94,0,0,0,9.17.93Zm-28.53-36.41a7.32,7.32,0,0,0-4.56-1l-22.2,1.9v10.56l22.2-1.9a8.31,8.31,0,0,0,4.47-1.73,5.33,5.33,0,0,0,2.15-4,4.13,4.13,0,0,0-2.06-3.76Zm156.07,27.06a50.35,50.35,0,0,1-12.08,17.06,60.69,60.69,0,0,1-18.8,11.63,84.33,84.33,0,0,1-24.43,5.59,78.65,78.65,0,0,1-24.43-1.4,49.31,49.31,0,0,1-18.8-8.41,39.49,39.49,0,0,1-12.08-15,48.58,48.58,0,0,1-4.3-20.93,53.56,53.56,0,0,1,4.3-21.76A51.51,51.51,0,0,1,545,458.11a60,60,0,0,1,18.8-11.73,84,84,0,0,1,24.43-5.58,78.36,78.36,0,0,1,24.43,1.39,48.52,48.52,0,0,1,18.8,8.5,40.51,40.51,0,0,1,12.08,15,48.35,48.35,0,0,1,4.3,21,53.54,53.54,0,0,1-4.3,21.67Zm-35.17-27a18.43,18.43,0,0,0-3.76-7.1,17.94,17.94,0,0,0-6.62-4.72,20.37,20.37,0,0,0-9.76-1.22,23.42,23.42,0,0,0-9.75,2.81,21.69,21.69,0,0,0-6.63,5.75,22.61,22.61,0,0,0-3.76,7.84,34.86,34.86,0,0,0-1.16,8.88,31.57,31.57,0,0,0,1.16,8.58,18.29,18.29,0,0,0,3.76,7.1,17.06,17.06,0,0,0,6.63,4.63,21.14,21.14,0,0,0,9.75,1.13,23.36,23.36,0,0,0,9.76-2.81,21.77,21.77,0,0,0,6.62-5.75,22.62,22.62,0,0,0,3.76-7.75,33.78,33.78,0,0,0,1.16-8.79,31.57,31.57,0,0,0-1.16-8.58Zm112.46,47.91a50.14,50.14,0,0,0-9.66-23.14q-7.86-10.59-21.46-16.94V532l-35,3V437.26a54.48,54.48,0,0,1,15.38,1.1,89,89,0,0,1,17.17,5.41,125.23,125.23,0,0,1,17.35,9.07,117.1,117.1,0,0,1,16.1,12V431.59l35-3v97.73l-34.88,3Z" transform="translate(182.25 -97.87)"/><path class="cls-4" d="M767.75,587.06l-15,1.29h0l-6.19.23a8.87,8.87,0,0,0-2.81.77h0l-5-.1v-.19c-1.25.17-2.48.35-3.4.43a14.34,14.34,0,0,0-4.75,1.26,14.58,14.58,0,0,0-4,2.74,13.58,13.58,0,0,0-2.8,3.89,10.76,10.76,0,0,0-1,4.69c0,3.6,1.16,6.34,3.5,8.2a12,12,0,0,0,8.9,2.34l2.6-.24V600.29l20-1.71v27.8l-27,2.32a33.41,33.41,0,0,1-11.72-.88,21.9,21.9,0,0,1-8.94-4.7,21.46,21.46,0,0,1-5.66-8.15,29.64,29.64,0,0,1-2-11.25,28.72,28.72,0,0,1,2.34-11.62,29.1,29.1,0,0,1,6.4-9.34,33.64,33.64,0,0,1,9.54-6.48c3.64-1.67,7.28-2,11.52-2.38,3.17-.27,6.24-1,8.59-.88.31,0,.61,0,.91.07L766,571c19.2-1.65,34.76-18.54,34.76-37.74V145.94c0-19.31-15.66-33.63-35-32l-.91.08-2.56.22-3.08.27h-.11l-8.3.72-13.57,1.18-13.31,1.15-4.22.36-3.78.33-9.62.83-10.24.88-13.82,1.19-7.42.64-3.56.31-.21,0-30.21,2.61-6.26.53-21.1,1.82-3.92.34-8.14.7-.94.08-24.91,2.14-15.14,1.3-8,.69-6.75.58-25.67,2.2-9.2.79-11.85,1-8.41.73-78.1,6.68-10.7.91-33.72,2.88L350.4,150.3a1.59,1.59,0,0,0-1.2.6,1.15,1.15,0,0,0,.4,1.37c1.86,1.51,3.75,2.89,5.64,4.16a34.5,34.5,0,0,1,5.75,4.95,13.63,13.63,0,0,1,3.7,8.13,16.5,16.5,0,0,1-1.55,8.63,18.82,18.82,0,0,1-6,7.1,18.27,18.27,0,0,1-9.54,3.47l-27.38,2.35-13.89,1.19a8.49,8.49,0,0,1-2.74-.26,16.91,16.91,0,0,1-2.95-1.1,30.15,30.15,0,0,1-2.9-1.6,18.26,18.26,0,0,1-2.4-1.79l-10.59-9.39v16l-20,1.72V141.19l33.34-2.86a20.63,20.63,0,0,1,7.9.78,18.56,18.56,0,0,1,6.46,3.4A16.49,16.49,0,0,1,316.8,148a15.51,15.51,0,0,1,1.61,7,20.17,20.17,0,0,1-.75,5.37,18.43,18.43,0,0,1-2.31,5.05,19.16,19.16,0,0,1-3.9,4.34A20.71,20.71,0,0,1,306,173a23.45,23.45,0,0,0,3.91,1.62,12.79,12.79,0,0,0,5.1.51l5.41-.46L342,172.8a1.41,1.41,0,0,0,1.2-.6c.27-.69.13-1.18-.4-1.47a51.26,51.26,0,0,1-6.86-4.21q-2.75-2.07-4.25-3.14a12.14,12.14,0,0,1-3.65-4.39,17,17,0,0,1-1.71-5.76,19.12,19.12,0,0,1,.35-6.24,15.45,15.45,0,0,1,2.61-5.78,16,16,0,0,1,5.1-4.44,21.55,21.55,0,0,1,8.32-2.59l4-.29v.26l421-36.09c27.61-2.37,50,18.1,50,45.71v389c0,27.62-22.39,51.92-50,54.29Zm-468-432.21a4.09,4.09,0,0,0-2.55-.58l-12.4,1.06v5.9l12.4-1.06a4.7,4.7,0,0,0,2.5-1,3,3,0,0,0,1.2-2.26,2.3,2.3,0,0,0-1.15-2.1Zm-62.26,35.5L219,191.93l-2.4,8-20.8,1.78,16.9-56.05,31-2.66,16.9,53.15L239.84,198l-2.4-7.6Zm-9.2-28.91-4.9,16.32,9.8-.84-4.9-15.48Zm-61.9,42.81-5.8-18.3-5.8,19.29-19,1.63-16.9-53.15,19.1-1.64,6.4,20.35,6.5-21.45,19.5-1.68,6.4,20.36,6.5-21.46,19-1.63-16.9,56.05-19,1.63Zm-96.79,7.81a16.14,16.14,0,0,1-3-1.1,31.14,31.14,0,0,1-2.89-1.59,16.7,16.7,0,0,1-2.39-1.79l-10.57-9.37v16l-20,1.72V161.15l33.54-2.87a20.94,20.94,0,0,1,8,.78,18.74,18.74,0,0,1,6.49,3.42A16.66,16.66,0,0,1,83.12,168a15.59,15.59,0,0,1,1.61,7.07,20,20,0,0,1-.75,5.4,18.34,18.34,0,0,1-2.32,5.08,19.64,19.64,0,0,1-3.92,4.37,20.94,20.94,0,0,1-5.49,3.24,24.43,24.43,0,0,0,3.92,1.63,12.83,12.83,0,0,0,5.14.51l5.44-.46v16.25l-14.46,1.24a8,8,0,0,1-2.74-.26ZM65.7,174.91a4.09,4.09,0,0,0-2.55-.58l-12.4,1.06v5.9l12.4-1.06a4.7,4.7,0,0,0,2.5-1,3,3,0,0,0,1.2-2.26,2.3,2.3,0,0,0-1.15-2.1ZM3.44,210.41-15,212l-2.4,8-20.8,1.78,16.9-56.05,31-2.66,16.9,53.15L5.84,218l-2.4-7.6ZM-5.77,181.5l-4.9,16.32L-.86,197-5.77,181.5Zm-41.48,41.09-19,1.63V185.79l-6.54.56L-92.51,188a1.6,1.6,0,0,0-1.21.6,1.16,1.16,0,0,0,.4,1.38c1.88,1.51,3.77,2.91,5.69,4.19a34.52,34.52,0,0,1,5.78,5,13.65,13.65,0,0,1,3.72,8.18,16.6,16.6,0,0,1-1.55,8.69,19.1,19.1,0,0,1-6,7.16,20.34,20.34,0,0,1-10.1,3.61l-15.6,1.29c-11.83,1.09-18.61,1.64-18.61,1.64-19.45,1.67-35.22,18.79-35.22,38.24V615.75c0,19.33,15.67,33.66,35,32l585-50.15v.45l1-.08,8.7,11.65,8.8-13.16,21.9-1.87L476,623.53l19.2,25.66-24,2-8.7-11.65-8.8,13.16-21.9,1.87L451,625.68l-8.26-11-574.94,49.29c-27.62,2.37-50-18.1-50-45.71v-350c0-27.57,22.35-51.84,49.93-54.21,0,0,3.2-.23,9.07-.71v-.58l22.2-1.91a1.41,1.41,0,0,0,1.2-.6c.27-.69.13-1.18-.4-1.47a50.08,50.08,0,0,1-6.85-4.21c-1.83-1.37-3.25-2.42-4.25-3.13A12.24,12.24,0,0,1-115,197a16.93,16.93,0,0,1-1.7-5.75,18.85,18.85,0,0,1,.35-6.24,15.45,15.45,0,0,1,2.6-5.77,15.94,15.94,0,0,1,5.1-4.43,18.73,18.73,0,0,1,7.8-2.22l19.6-1.68,48-4.12v16.41l-14,1.2v38.23Zm576,403.86-30,2.58V615.91l30-2.57v13.11Zm29.5-16.37,6.5-21.46,19.5-1.67,6.4,20.35,6.5-21.46,19-1.63-16.9,56-19,1.63-5.8-18.3-5.8,19.29-19,1.63-16.9-53.15,19.1-1.63,6.4,20.35Zm80.5,27.52-20,1.71v-56l20-1.71v56Zm40-33.61V578.88l20-1.72v54.65l-19.55,1.67-17.45-22.36v23.81l-20,1.71V582l19.55-1.68L678.75,604Z" transform="translate(182.25 -97.87)"/></svg>