<svg id="Layer_1" data-name="Layer 1" xmlns="http://www.w3.org/2000/svg" xmlns:xlink="http://www.w3.org/1999/xlink" viewBox="0 0 1005.5 571.16"><defs><style>.cls-1{opacity:0.2;}.cls-2,.cls-4{fill-rule:evenodd;}.cls-3{fill:url(#linear-gradient);}.cls-4{fill:url(#linear-gradient-2);}</style><linearGradient id="linear-gradient" x1="309.49" y1="205.48" x2="309.49" y2="609" gradientUnits="userSpaceOnUse"><stop offset="0" stop-color="#ffc859"/><stop offset="1" stop-color="#fa0"/></linearGradient><linearGradient id="linear-gradient-2" x1="310" y1="105.53" x2="310" y2="671.76" xlink:href="#linear-gradient"/></defs><title>logo-gradient-shadow</title><g class="cls-1"><path d="M-115.5,475.18V320a47.22,47.22,0,0,0-1.22-11.23,46,46,0,0,0-3-8.64,38.68,38.68,0,0,0-3.83-7l76-14.19v190.4l-68,5.83ZM137.06,358.36a45.69,45.69,0,0,1,16.45,15.91,38.11,38.11,0,0,1,6,20A58.61,58.61,0,0,1,154.91,417a66.05,66.05,0,0,1-30.8,33.44,59.18,59.18,0,0,1-22.4,6.47l-76.3,6.54A53.61,53.61,0,0,1,3,460.85a51.81,51.81,0,0,1-30.8-28.16,53,53,0,0,1-4.55-22q0-9.8,5.6-20.6a59.67,59.67,0,0,1,15.75-19,50,50,0,0,1-15.75-16.5,38.51,38.51,0,0,1-5.6-19.47,58.61,58.61,0,0,1,4.55-22.79A66.17,66.17,0,0,1,3,278.85a59.18,59.18,0,0,1,22.4-6.47l76.3-6.54a53.61,53.61,0,0,1,22.4,2.63,51.74,51.74,0,0,1,30.8,28.16,53.07,53.07,0,0,1,4.55,22q0,10.16-6,20.81a63.24,63.24,0,0,1-16.45,18.91ZM91.91,328.45c-1.63-1.37-4-1.93-7-1.67l-42.69,3.66A11.45,11.45,0,0,0,35,333.33a8,8,0,0,0-2.63,6q0,7.69,9.81,6.86l42.69-3.66q9.45-.81,9.46-8.51a6.94,6.94,0,0,0-2.46-5.57Zm-7,54.68-42.69,3.66q-9.81.84-9.81,8.54A6.68,6.68,0,0,0,35,400.88q2.63,2.06,7.18,1.66l42.69-3.66a10.74,10.74,0,0,0,7-2.88,8.22,8.22,0,0,0,2.46-6q0-7.69-9.46-6.89ZM356.4,398.05A72,72,0,0,1,343,418.39,70.83,70.83,0,0,1,323.63,433a60.12,60.12,0,0,1-22.5,6.63L230,445.68a51.87,51.87,0,0,1-21.62-2.5A53.42,53.42,0,0,1,190.59,433a48.93,48.93,0,0,1-12.21-16.22,52.12,52.12,0,0,1-4.88-21v-68.2a69.32,69.32,0,0,1,5.25-26.71,77.6,77.6,0,0,1,14.18-22.57,80,80,0,0,1,21-16.5,68.92,68.92,0,0,1,25.73-8.16l114.83-9.85v57.39l-101.07,8.67a17.18,17.18,0,0,0-8.42,2.82q-3.51,2.41-3.51,7.32v8.23l70.44-6q14.3-1.21,23.72,2.68a35.23,35.23,0,0,1,15,11.27,44.85,44.85,0,0,1,7.85,17.46,111.45,111.45,0,0,1,2.61,20.87,53.81,53.81,0,0,1-4.71,23.59Zm-63.1-30a42.74,42.74,0,0,0-8.4,0l-43.4,3.72v6.3q0,4.9,3.85,6.84a16,16,0,0,0,8.75,1.53L286,383.71q10.85-.93,10.85-10.38c0-3.27-1.17-5-3.5-5.3Zm201.2-78.49V423.23l-68,5.83V295.38l-50,4.28V242.27l168-14.41v57.39l-50,4.29Zm190,117.09V334.21l-57,4.89v73.83l-69,5.91V225.65l69-5.92v74.21l57-4.88V216.23l68-5.83V400.8l-68,5.83ZM-68.53,541a2.8,2.8,0,0,0-2.14,1.08,2,2,0,0,0,.71,2.44q5,4,10.1,7.45a61.84,61.84,0,0,1,10.27,8.85A24.35,24.35,0,0,1-43,575.38a29.49,29.49,0,0,1-2.77,15.43,33.81,33.81,0,0,1-10.73,12.71,32.74,32.74,0,0,1-17.06,6.2l-49,4.2V584.61l39.67-3.4a2.51,2.51,0,0,0,2.15-1.08c.47-1.23.24-2.1-.72-2.62A91,91,0,0,1-93.64,570q-4.92-3.68-7.59-5.6a21.76,21.76,0,0,1-6.53-7.84,30.4,30.4,0,0,1-3-10.29,33.59,33.59,0,0,1,.62-11.13,27.4,27.4,0,0,1,4.65-10.32,28.57,28.57,0,0,1,9.11-7.93,33.75,33.75,0,0,1,13.94-4l49-4.2V538l-35,3Zm158,54.79-59.61,5.11a84.67,84.67,0,0,1-24.43-1.13A49.45,49.45,0,0,1-13.33,592a37.33,37.33,0,0,1-12.09-14.27q-4.29-8.76-4.29-20.58a54.23,54.23,0,0,1,4.29-21.85,51.39,51.39,0,0,1,12.09-17.14A61.12,61.12,0,0,1,5.46,506.35a82.74,82.74,0,0,1,24.43-5.67,76.52,76.52,0,0,1,24.44,1.49,49.48,49.48,0,0,1,18.79,8.59A40.22,40.22,0,0,1,85.2,525.83a49,49,0,0,1,4.3,21.11,51.07,51.07,0,0,1-8.77,29.22l8.77-.76v20.41ZM50.07,541.56a21.06,21.06,0,0,0-3.76-7.28,16.29,16.29,0,0,0-6.62-4.8A20.42,20.42,0,0,0,30,528.25a23.27,23.27,0,0,0-9.75,2.8A20.74,20.74,0,0,0,13.64,537a25.82,25.82,0,0,0-3.85,8,32.42,32.42,0,0,0-1.25,8.87,26.71,26.71,0,0,0,1.25,8.31,18,18,0,0,0,3.85,6.65,16.26,16.26,0,0,0,6.63,4.27,23.07,23.07,0,0,0,9.75,1,26.68,26.68,0,0,0,9.67-2.53,18.79,18.79,0,0,0,6.62-5.31,23,23,0,0,0,3.76-7.39,29.74,29.74,0,0,0,1.25-8.61,30.3,30.3,0,0,0-1.25-8.67ZM193.19,561.8A51.21,51.21,0,0,1,181.87,576a62.34,62.34,0,0,1-16.09,10.18,57.74,57.74,0,0,1-18.6,4.83,55,55,0,0,1-18.78-1.53A48.85,48.85,0,0,1,112.23,582a40.24,40.24,0,0,1-11.42-12.32,31.67,31.67,0,0,1-4.31-16.44V497.5l35-3v54.74a12.23,12.23,0,0,0,1.26,5.57,13.35,13.35,0,0,0,3.42,4.3,13.91,13.91,0,0,0,5,2.63,16,16,0,0,0,6,.57,15.87,15.87,0,0,0,5.86-1.67,17.77,17.77,0,0,0,4.86-3.57,18.16,18.16,0,0,0,3.34-4.88,13.22,13.22,0,0,0,1.26-5.61V491.87l35-3v55.75a35.75,35.75,0,0,1-4.31,17.18Zm82,18.1-4.29-13.59-32.94,2.82-4.29,14.33-37.24,3.19,30.25-100.32,55.49-4.76,30.26,95.14-37.24,3.19Zm-20.76-65.34-8.77,29.21,17.54-1.5-8.77-27.71Zm158.17,24.75a51.84,51.84,0,0,1-10.83,16.5,52.49,52.49,0,0,1-16.29,11.24A62.69,62.69,0,0,1,365,572.21l-45.47,3.9V478.38l45.47-3.9a54.28,54.28,0,0,1,19.77,1.79,45.64,45.64,0,0,1,16.47,8.44A41.13,41.13,0,0,1,412.4,499a44,44,0,0,1,4.12,19.43,54,54,0,0,1-3.94,20.92Zm-32.66-25.92a17.12,17.12,0,0,0-4.84-5.85,20.06,20.06,0,0,0-7.07-3.42,24.39,24.39,0,0,0-8.5-.71l-5,.44v40.63l5-.43a25.19,25.19,0,0,0,15.93-6.92q6.27-6.07,6.27-15.75a17.43,17.43,0,0,0-1.79-8Zm133.87,16.9,9.71-.83v29.26L497.39,561a14.79,14.79,0,0,1-4.95-.47,29.52,29.52,0,0,1-5.31-2,52.86,52.86,0,0,1-5.22-2.88,30.53,30.53,0,0,1-4.32-3.23L458.5,535.49V564.2l-35,3V469.33l59.89-5.14a37.46,37.46,0,0,1,14.21,1.39,33.51,33.51,0,0,1,11.6,6.11,29.93,29.93,0,0,1,7.83,9.85,28,28,0,0,1,2.87,12.62,35.76,35.76,0,0,1-1.34,9.64,33.5,33.5,0,0,1-4.14,9.08,34.77,34.77,0,0,1-7,7.8,37,37,0,0,1-9.8,5.78,42.55,42.55,0,0,0,7,2.91,22.76,22.76,0,0,0,9.17.92Zm-28.53-36.4a7.26,7.26,0,0,0-4.56-1l-22.2,1.9v10.56l22.2-1.9a8.39,8.39,0,0,0,4.47-1.73,5.35,5.35,0,0,0,2.15-4,4.13,4.13,0,0,0-2.06-3.76ZM641.33,521a50.32,50.32,0,0,1-12.08,17,60.71,60.71,0,0,1-18.8,11.64A84.65,84.65,0,0,1,586,555.22a78.67,78.67,0,0,1-24.43-1.39,49.17,49.17,0,0,1-18.8-8.42,39.46,39.46,0,0,1-12.08-15,48.65,48.65,0,0,1-4.3-20.93,53.53,53.53,0,0,1,4.3-21.76,51.55,51.55,0,0,1,12.08-17.06A59.79,59.79,0,0,1,561.59,459,84.33,84.33,0,0,1,586,453.37a78.65,78.65,0,0,1,24.43,1.4,48.52,48.52,0,0,1,18.8,8.5,40.47,40.47,0,0,1,12.08,15,48.36,48.36,0,0,1,4.3,21,53.57,53.57,0,0,1-4.3,21.67Zm-35.17-27a18.4,18.4,0,0,0-3.76-7.11,17.81,17.81,0,0,0-6.62-4.71,20.37,20.37,0,0,0-9.76-1.22,23.42,23.42,0,0,0-9.75,2.8,21.85,21.85,0,0,0-6.63,5.76,22.53,22.53,0,0,0-3.76,7.84,34.79,34.79,0,0,0-1.16,8.87,31.46,31.46,0,0,0,1.16,8.58,18.4,18.4,0,0,0,3.76,7.11,16.93,16.93,0,0,0,6.63,4.62,21.13,21.13,0,0,0,9.75,1.14,23.36,23.36,0,0,0,9.76-2.81,21.66,21.66,0,0,0,6.62-5.76,22.53,22.53,0,0,0,3.76-7.75,33.7,33.7,0,0,0,1.16-8.78,31.57,31.57,0,0,0-1.16-8.58Zm112.46,47.9A50.18,50.18,0,0,0,709,518.74q-7.86-10.59-21.46-16.94v42.77l-35,3V449.84a54.82,54.82,0,0,1,15.38,1.09,89.1,89.1,0,0,1,17.17,5.42,126.24,126.24,0,0,1,17.35,9.06,118,118,0,0,1,16.1,12V444.17l35-3v97.72l-34.88,3Z" transform="translate(190 -105.53)"/><path class="cls-2" d="M765.5,599.64l-15,1.28h0l-6.19.24a9.2,9.2,0,0,0-2.81.76h0l-5-.09v-.2c-1.25.18-2.48.36-3.4.44a13.87,13.87,0,0,0-4.75,1.26,14.36,14.36,0,0,0-4,2.74,13.58,13.58,0,0,0-2.8,3.89,10.73,10.73,0,0,0-1,4.69c0,3.6,1.16,6.34,3.5,8.2a12,12,0,0,0,8.9,2.34l2.6-.24V612.87l20-1.71V639l-27,2.32a33.4,33.4,0,0,1-11.72-.89,21.88,21.88,0,0,1-8.94-4.69,21.42,21.42,0,0,1-5.66-8.16,29.6,29.6,0,0,1-2-11.25,28.76,28.76,0,0,1,2.34-11.62,29.17,29.17,0,0,1,6.4-9.33,33.64,33.64,0,0,1,9.54-6.48c3.64-1.67,7.28-2,11.52-2.38,3.17-.27,6.24-1,8.59-.89l.91.07,24.26-2.08c19.2-1.64,34.76-18.54,34.76-37.73V158.52c0-19.32-15.66-33.63-35-32l-.91.08-2.56.22-3.08.26h-.11l-8.3.72L735,129l-13.31,1.15-4.22.37-3.78.32-9.62.84-10.24.88L680,133.76l-7.42.64-3.56.31-.21,0-30.21,2.6-6.26.54-21.1,1.82-3.92.33-8.14.7-.94.09L573.34,143l-15.14,1.3-8,.68-6.75.58-25.67,2.21-9.2.79-11.85,1-8.41.72-78.1,6.68-10.7.92-33.72,2.88-17.68,2.16a1.53,1.53,0,0,0-1.2.6,1.14,1.14,0,0,0,.4,1.36c1.86,1.51,3.75,2.9,5.64,4.17a34.5,34.5,0,0,1,5.75,5,13.63,13.63,0,0,1,3.7,8.13,16.45,16.45,0,0,1-1.55,8.62,18.77,18.77,0,0,1-6,7.11,18.36,18.36,0,0,1-9.54,3.47L318,203.63l-13.89,1.2a8.23,8.23,0,0,1-2.74-.27,15.44,15.44,0,0,1-2.95-1.1,28.12,28.12,0,0,1-2.9-1.6,16.64,16.64,0,0,1-2.4-1.79l-10.59-9.38v16l-20,1.71V153.77l33.34-2.86a20.82,20.82,0,0,1,7.9.77,18.73,18.73,0,0,1,6.46,3.4,16.53,16.53,0,0,1,4.35,5.49,15.48,15.48,0,0,1,1.61,7,20,20,0,0,1-.75,5.36A18.49,18.49,0,0,1,313.1,178a19.16,19.16,0,0,1-3.9,4.34,21,21,0,0,1-5.46,3.22,24.38,24.38,0,0,0,3.91,1.61,12.61,12.61,0,0,0,5.1.52l5.41-.47,21.62-1.85a1.41,1.41,0,0,0,1.2-.6c.27-.69.13-1.18-.4-1.47a50.21,50.21,0,0,1-6.86-4.22Q331,177,329.47,176a12.06,12.06,0,0,1-3.65-4.39,16.93,16.93,0,0,1-1.71-5.76,19.06,19.06,0,0,1,.35-6.23,15.38,15.38,0,0,1,2.61-5.78,15.89,15.89,0,0,1,5.1-4.45,21.55,21.55,0,0,1,8.32-2.58l4-.3v.27l421-36.09c27.61-2.37,50,18.1,50,45.71v389c0,27.61-22.39,51.92-50,54.29Zm-468-432.21a4.1,4.1,0,0,0-2.55-.59l-12.4,1.07v5.9l12.4-1.06a4.71,4.71,0,0,0,2.5-1,3,3,0,0,0,1.2-2.25,2.29,2.29,0,0,0-1.15-2.1Zm-62.26,35.5-18.4,1.58-2.4,8-20.8,1.79,16.9-56.05,31-2.66,16.9,53.15-20.8,1.78-2.4-7.59ZM226,174l-4.9,16.32,9.8-.84L226,174Zm-61.9,42.81-5.8-18.31-5.8,19.3-19,1.63-16.9-53.15,19.1-1.64,6.4,20.35,6.5-21.46,19.5-1.67,6.4,20.35,6.5-21.45,19-1.63-16.9,56-19,1.63ZM67.3,224.64a16.14,16.14,0,0,1-3-1.1,29.05,29.05,0,0,1-2.89-1.6,16,16,0,0,1-2.39-1.79L48.5,210.79v16l-20,1.71V173.73L62,170.86a20.74,20.74,0,0,1,8,.77,18.91,18.91,0,0,1,6.49,3.42,16.7,16.7,0,0,1,4.38,5.52,15.55,15.55,0,0,1,1.61,7.06,20,20,0,0,1-.75,5.41,18.34,18.34,0,0,1-2.32,5.08,19.64,19.64,0,0,1-3.92,4.37A20.94,20.94,0,0,1,70,205.73a24.48,24.48,0,0,0,3.92,1.62,12.83,12.83,0,0,0,5.14.52l5.44-.47v16.26L70,224.9a8.22,8.22,0,0,1-2.74-.26Zm-3.85-37.15a4.09,4.09,0,0,0-2.55-.58L48.5,188v5.9l12.4-1.06a4.71,4.71,0,0,0,2.5-1,3,3,0,0,0,1.2-2.25,2.3,2.3,0,0,0-1.15-2.1ZM1.19,223l-18.4,1.58-2.4,8-20.8,1.79,16.9-56.05,31-2.66,16.9,53.15-20.8,1.78L1.19,223ZM-8,194.08l-4.9,16.32,9.81-.84L-8,194.08ZM-49.5,235.17l-19,1.63V198.36l-6.54.56-19.72,1.69a1.61,1.61,0,0,0-1.21.61,1.15,1.15,0,0,0,.4,1.37c1.88,1.52,3.77,2.92,5.69,4.2a34.52,34.52,0,0,1,5.78,5A13.65,13.65,0,0,1-80.38,220a16.57,16.57,0,0,1-1.55,8.68,19,19,0,0,1-6,7.16,20.25,20.25,0,0,1-10.1,3.61l-15.6,1.3c-11.83,1.09-18.61,1.64-18.61,1.64-19.45,1.67-35.22,18.78-35.22,38.23V628.33c0,19.33,15.67,33.66,35,32l585-50.15v.45l1-.09,8.7,11.65L471,609l21.9-1.88-19.2,29,19.2,25.65-24,2.06-8.7-11.65-8.8,13.15-21.9,1.88,19.2-29-8.26-11L-134.5,676.5c-27.62,2.37-50-18.1-50-45.71v-350c0-27.58,22.35-51.85,49.93-54.21,0,0,3.2-.23,9.07-.72v-.58l22.2-1.9a1.41,1.41,0,0,0,1.2-.6c.27-.69.13-1.18-.4-1.47a50.08,50.08,0,0,1-6.85-4.21c-1.83-1.38-3.25-2.42-4.25-3.14a12.12,12.12,0,0,1-3.65-4.38,16.92,16.92,0,0,1-1.7-5.76,18.8,18.8,0,0,1,.35-6.23,15.38,15.38,0,0,1,2.6-5.77,16.09,16.09,0,0,1,5.1-4.44,18.88,18.88,0,0,1,7.8-2.22l19.6-1.68,48-4.11v16.41l-14,1.2v38.23ZM526.5,639l-30,2.57V628.49l30-2.57V639ZM556,622.65l6.5-21.45,19.5-1.68,6.4,20.36,6.5-21.46,19-1.63L597,652.84l-19,1.63-5.8-18.3-5.8,19.29-19,1.63-16.9-53.15,19.1-1.64,6.4,20.35Zm80.5,27.52-20,1.72v-56l20-1.72v56Zm40-33.61V591.45l20-1.71v54.65L677,646.06,659.5,623.69V647.5l-20,1.72V594.57l19.55-1.68,17.45,23.67Z" transform="translate(190 -105.53)"/></g><path class="cls-3" d="M-121,470.26V315.08a47.22,47.22,0,0,0-1.22-11.23,46,46,0,0,0-3-8.64,38.68,38.68,0,0,0-3.83-7L-53,274v190.4l-68,5.83ZM131.56,353.43A45.72,45.72,0,0,1,148,369.35a38.08,38.08,0,0,1,6,20,58.66,58.66,0,0,1-4.55,22.8,66.16,66.16,0,0,1-30.8,33.44A59.18,59.18,0,0,1,96.21,452l-76.3,6.54a53.61,53.61,0,0,1-22.4-2.63,51.81,51.81,0,0,1-30.8-28.16,53.07,53.07,0,0,1-4.55-22q0-9.79,5.6-20.61a59.74,59.74,0,0,1,15.75-19,50,50,0,0,1-15.75-16.5,38.56,38.56,0,0,1-5.6-19.47,58.61,58.61,0,0,1,4.55-22.79,66.17,66.17,0,0,1,30.8-33.44,59.18,59.18,0,0,1,22.4-6.47l76.3-6.54a53.61,53.61,0,0,1,22.4,2.63,51.68,51.68,0,0,1,30.8,28.15,53.1,53.1,0,0,1,4.55,22q0,10.16-6,20.82a63.08,63.08,0,0,1-16.45,18.9Zm-45.15-29.9c-1.63-1.37-4-1.93-7-1.67l-42.69,3.66a11.45,11.45,0,0,0-7.18,2.89,8,8,0,0,0-2.63,6q0,7.69,9.81,6.86l42.69-3.66q9.45-.81,9.46-8.51a6.93,6.93,0,0,0-2.46-5.57Zm-7,54.68-42.69,3.66q-9.81.84-9.81,8.54A6.68,6.68,0,0,0,29.54,396q2.63,2.06,7.18,1.66L79.41,394a10.74,10.74,0,0,0,7-2.88,8.22,8.22,0,0,0,2.46-6q0-7.69-9.46-6.89ZM350.9,393.13a72.07,72.07,0,0,1-13.42,20.33A70.43,70.43,0,0,1,318.13,428a60.14,60.14,0,0,1-22.5,6.64l-71.14,6.1a51.71,51.71,0,0,1-21.62-2.51,53.23,53.23,0,0,1-17.78-10.15,49,49,0,0,1-12.21-16.22,52.13,52.13,0,0,1-4.88-21V322.66A69.32,69.32,0,0,1,173.25,296a77.46,77.46,0,0,1,14.18-22.57,80,80,0,0,1,21-16.51,68.73,68.73,0,0,1,25.73-8.15L349,238.87v57.39l-101.07,8.66a17.29,17.29,0,0,0-8.42,2.83q-3.51,2.42-3.51,7.32v8.23l70.44-6q14.3-1.23,23.72,2.68a35.21,35.21,0,0,1,15,11.26A45,45,0,0,1,353,348.66a111.55,111.55,0,0,1,2.61,20.88,53.81,53.81,0,0,1-4.71,23.59Zm-63.1-30a42.74,42.74,0,0,0-8.4,0L236,366.85v6.3q0,4.91,3.85,6.84a16,16,0,0,0,8.75,1.53l31.85-2.73q10.85-.94,10.85-10.39,0-4.89-3.5-5.29ZM489,284.62V418.31l-68,5.83V290.45l-50,4.29v-57.4l168-14.4v57.39l-50,4.29ZM679,401.71V329.29l-57,4.88V408l-69,5.91V220.72l69-5.91V289l57-4.88V211.31l68-5.83v190.4l-68,5.83ZM-74,536.1a2.8,2.8,0,0,0-2.14,1.08,2.05,2.05,0,0,0,.71,2.44q5,4,10.1,7.44a62.41,62.41,0,0,1,10.27,8.86,24.35,24.35,0,0,1,6.62,14.54,29.43,29.43,0,0,1-2.77,15.42A33.76,33.76,0,0,1-62,598.6,32.74,32.74,0,0,1-79,604.8l-49,4.2V579.69l39.67-3.4a2.54,2.54,0,0,0,2.15-1.08c.47-1.23.24-2.1-.72-2.62a91,91,0,0,1-12.24-7.53q-4.92-3.69-7.59-5.6a21.76,21.76,0,0,1-6.53-7.84,30.4,30.4,0,0,1-3-10.29,33.59,33.59,0,0,1,.62-11.13A27.4,27.4,0,0,1-111,519.88a28.57,28.57,0,0,1,9.11-7.93A33.75,33.75,0,0,1-88,508l49-4.2V533.1l-35,3ZM84,590.89,24.39,596A84.67,84.67,0,0,1,0,594.87a49.3,49.3,0,0,1-18.79-7.79,37.18,37.18,0,0,1-12.09-14.27q-4.29-8.76-4.29-20.57a54.2,54.2,0,0,1,4.29-21.85,51.29,51.29,0,0,1,12.09-17.14A61.12,61.12,0,0,1,0,501.43a82.74,82.74,0,0,1,24.43-5.67,76.83,76.83,0,0,1,24.44,1.48,49.63,49.63,0,0,1,18.79,8.59A40.33,40.33,0,0,1,79.7,520.91,49,49,0,0,1,84,542a51,51,0,0,1-8.77,29.21l8.77-.75v20.41ZM44.57,536.64a21.06,21.06,0,0,0-3.76-7.28,16.4,16.4,0,0,0-6.62-4.81,20.68,20.68,0,0,0-9.67-1.23,23.42,23.42,0,0,0-9.75,2.81,20.62,20.62,0,0,0-6.63,5.94,25.87,25.87,0,0,0-3.85,8A32.55,32.55,0,0,0,3,549a26.71,26.71,0,0,0,1.25,8.31,18,18,0,0,0,3.85,6.65,16.36,16.36,0,0,0,6.63,4.27,23.23,23.23,0,0,0,9.75.95,26.68,26.68,0,0,0,9.67-2.53,18.79,18.79,0,0,0,6.62-5.31,23,23,0,0,0,3.76-7.4,29.62,29.62,0,0,0,1.25-8.6,30.25,30.25,0,0,0-1.25-8.67Zm143.12,20.23a50.92,50.92,0,0,1-11.32,14.18,62.37,62.37,0,0,1-16.09,10.19,57.74,57.74,0,0,1-18.6,4.83,55.26,55.26,0,0,1-18.78-1.54,48.65,48.65,0,0,1-16.17-7.42A40.1,40.1,0,0,1,95.31,564.8,31.67,31.67,0,0,1,91,548.36V492.58l35-3v54.74a12.23,12.23,0,0,0,1.26,5.57,13.35,13.35,0,0,0,3.42,4.3,13.91,13.91,0,0,0,5,2.63,16,16,0,0,0,6,.57,15.87,15.87,0,0,0,5.86-1.67,17.77,17.77,0,0,0,4.86-3.57,18.16,18.16,0,0,0,3.34-4.88,13.25,13.25,0,0,0,1.26-5.61V486.94l35-3V539.7a35.69,35.69,0,0,1-4.31,17.17Zm82,18.11-4.29-13.59-32.94,2.82-4.29,14.33-37.24,3.19,30.25-100.32,55.49-4.76,30.26,95.14L269.67,575Zm-20.76-65.34-8.77,29.21,17.54-1.5-8.77-27.71Zm158.17,24.75a51.84,51.84,0,0,1-10.83,16.5A52.49,52.49,0,0,1,380,562.13a62.69,62.69,0,0,1-20.49,5.16L314,571.19V473.45l45.47-3.9a54.5,54.5,0,0,1,19.77,1.8,45.62,45.62,0,0,1,16.47,8.43A41.25,41.25,0,0,1,406.9,494,44,44,0,0,1,411,513.47a54.07,54.07,0,0,1-3.94,20.92Zm-32.66-25.92a17.12,17.12,0,0,0-4.84-5.85,19.89,19.89,0,0,0-7.07-3.42,24.39,24.39,0,0,0-8.5-.71l-5,.43v40.64l5-.43a25.19,25.19,0,0,0,15.93-6.92q6.27-6.09,6.27-15.75a17.4,17.4,0,0,0-1.79-8Zm133.87,16.9,9.71-.83V553.8L491.89,556a14.56,14.56,0,0,1-4.95-.48,29.46,29.46,0,0,1-5.31-2,52.94,52.94,0,0,1-5.22-2.89,29.07,29.07,0,0,1-4.32-3.23L453,530.56v28.72l-35,3V464.4l59.89-5.13a37.26,37.26,0,0,1,14.21,1.39,33.51,33.51,0,0,1,11.6,6.11,29.93,29.93,0,0,1,7.83,9.85,28,28,0,0,1,2.87,12.61,35.78,35.78,0,0,1-1.34,9.65,33.5,33.5,0,0,1-4.14,9.08,34.77,34.77,0,0,1-7,7.8,37,37,0,0,1-9.8,5.78,42.55,42.55,0,0,0,7,2.91,22.94,22.94,0,0,0,9.17.92ZM479.76,489a7.33,7.33,0,0,0-4.56-1.05L453,489.83v10.56l22.2-1.9a8.39,8.39,0,0,0,4.47-1.73,5.35,5.35,0,0,0,2.15-4,4.12,4.12,0,0,0-2.06-3.76Zm156.07,27a50.26,50.26,0,0,1-12.08,17.06A60.69,60.69,0,0,1,605,544.71a84.33,84.33,0,0,1-24.43,5.59,78.35,78.35,0,0,1-24.43-1.4,49.15,49.15,0,0,1-18.8-8.41,39.46,39.46,0,0,1-12.08-15,48.65,48.65,0,0,1-4.3-20.93,53.53,53.53,0,0,1,4.3-21.76,51.55,51.55,0,0,1,12.08-17.06A60,60,0,0,1,556.09,454a84.65,84.65,0,0,1,24.43-5.58,78.35,78.35,0,0,1,24.43,1.4,48.38,48.38,0,0,1,18.8,8.5,40.39,40.39,0,0,1,12.08,15,48.35,48.35,0,0,1,4.3,21,53.54,53.54,0,0,1-4.3,21.67Zm-35.17-27A18.4,18.4,0,0,0,596.9,482a17.81,17.81,0,0,0-6.62-4.71,20.37,20.37,0,0,0-9.76-1.22,23.27,23.27,0,0,0-9.75,2.8,21.72,21.72,0,0,0-6.63,5.76,22.53,22.53,0,0,0-3.76,7.84,34.79,34.79,0,0,0-1.16,8.87,31.51,31.51,0,0,0,1.16,8.58,18.4,18.4,0,0,0,3.76,7.11,16.93,16.93,0,0,0,6.63,4.62,21.13,21.13,0,0,0,9.75,1.14,23.51,23.51,0,0,0,9.76-2.81,21.66,21.66,0,0,0,6.62-5.76,22.62,22.62,0,0,0,3.76-7.75,33.76,33.76,0,0,0,1.16-8.78,31.57,31.57,0,0,0-1.16-8.58ZM713.12,537a50.18,50.18,0,0,0-9.66-23.14Q695.6,503.23,682,496.88v42.76l-35,3V444.92A54.45,54.45,0,0,1,662.38,446a89.1,89.1,0,0,1,17.17,5.42,126.24,126.24,0,0,1,17.35,9.06,118,118,0,0,1,16.1,12V439.25l35-3V534l-34.88,3Z" transform="translate(190 -105.53)"/><path class="cls-4" d="M760,594.71,745,596h0l-6.19.24A8.92,8.92,0,0,0,736,597h0l-5-.09v-.2c-1.25.18-2.48.36-3.4.44a13.87,13.87,0,0,0-4.75,1.26,14.36,14.36,0,0,0-4,2.74,13.44,13.44,0,0,0-2.8,3.89,10.7,10.7,0,0,0-1,4.69c0,3.6,1.16,6.33,3.5,8.2a12.08,12.08,0,0,0,8.9,2.34L730,620V608l20-1.72V634l-27,2.32a33.64,33.64,0,0,1-11.72-.89,21.88,21.88,0,0,1-8.94-4.69,21.5,21.5,0,0,1-5.66-8.16,29.6,29.6,0,0,1-2-11.25A28.76,28.76,0,0,1,697,599.75a29.21,29.21,0,0,1,6.4-9.34,33.61,33.61,0,0,1,9.54-6.47c3.64-1.67,7.28-2,11.52-2.38,3.17-.27,6.24-1,8.59-.89l.91.07,24.26-2.08C777.44,577,793,560.12,793,540.92V153.6c0-19.32-15.66-33.63-35-32l-.91.08-2.56.22-3.08.27h-.11l-8.3.72-13.57,1.17-13.31,1.15-4.22.37-3.78.32-9.62.83-10.24.89-13.82,1.19-7.42.64-3.56.31-.21,0-30.21,2.6-6.26.54-21.1,1.81-3.92.34-8.14.7-.94.08L567.84,138l-15.14,1.3-8,.69-6.75.58-25.67,2.2-9.2.79-11.85,1-8.41.72L404.75,152l-10.7.92-33.72,2.87L342.65,158a1.53,1.53,0,0,0-1.2.6,1.14,1.14,0,0,0,.4,1.36c1.86,1.51,3.75,2.9,5.64,4.17a33.59,33.59,0,0,1,5.75,4.95,13.63,13.63,0,0,1,3.7,8.13,16.47,16.47,0,0,1-1.55,8.62,18.92,18.92,0,0,1-6,7.11,18.36,18.36,0,0,1-9.54,3.47l-27.38,2.34-13.89,1.19a8,8,0,0,1-2.74-.26,16.14,16.14,0,0,1-2.95-1.1,28.12,28.12,0,0,1-2.9-1.6,16.64,16.64,0,0,1-2.4-1.79L277,185.77v16l-20,1.72V148.84L290.34,146a20.63,20.63,0,0,1,7.9.77,18.73,18.73,0,0,1,6.46,3.4,16.59,16.59,0,0,1,4.35,5.48,15.54,15.54,0,0,1,1.61,7,20.06,20.06,0,0,1-.75,5.37,18.49,18.49,0,0,1-2.31,5.06,19.6,19.6,0,0,1-3.9,4.34,20.68,20.68,0,0,1-5.46,3.21,23.45,23.45,0,0,0,3.91,1.62,12.61,12.61,0,0,0,5.1.52l5.41-.47,21.62-1.85a1.41,1.41,0,0,0,1.2-.6c.27-.69.13-1.18-.4-1.47a51.22,51.22,0,0,1-6.86-4.22c-1.83-1.38-3.25-2.42-4.25-3.14a12.06,12.06,0,0,1-3.65-4.39,16.93,16.93,0,0,1-1.71-5.76,19.12,19.12,0,0,1,.35-6.24,15.4,15.4,0,0,1,2.61-5.77,15.89,15.89,0,0,1,5.1-4.45,21.55,21.55,0,0,1,8.32-2.58l4-.3v.26l421-36.09c27.61-2.36,50,18.1,50,45.72v389c0,27.61-22.39,51.92-50,54.28ZM292,162.51a4.1,4.1,0,0,0-2.55-.59L277,163v5.9l12.4-1.07a4.7,4.7,0,0,0,2.5-1,3,3,0,0,0,1.2-2.25,2.28,2.28,0,0,0-1.15-2.1ZM229.69,198l-18.4,1.57-2.4,8-20.8,1.78L205,153.32l31-2.65,16.9,53.15-20.8,1.78-2.4-7.59Zm-9.2-28.91-4.9,16.32,9.8-.85-4.9-15.47Zm-61.9,42.8-5.8-18.3L147,212.9l-19,1.63-16.9-53.16,19.1-1.63,6.4,20.35,6.5-21.46,19.5-1.67,6.4,20.35,6.5-21.46,19-1.62-16.9,56-19,1.63ZM61.8,219.71a16.08,16.08,0,0,1-2.95-1.09A29.05,29.05,0,0,1,56,217a16,16,0,0,1-2.39-1.79L43,205.87v16l-20,1.71V168.81l33.54-2.88a20.94,20.94,0,0,1,8,.78A18.74,18.74,0,0,1,71,170.13a16.6,16.6,0,0,1,4.38,5.52A15.55,15.55,0,0,1,77,182.71a20.06,20.06,0,0,1-.75,5.41,18.47,18.47,0,0,1-2.32,5.08A19.59,19.59,0,0,1,70,197.56a20.94,20.94,0,0,1-5.49,3.24,23.55,23.55,0,0,0,3.92,1.63,12.83,12.83,0,0,0,5.14.52l5.44-.47v16.26L64.54,220a8.23,8.23,0,0,1-2.74-.27ZM58,182.57A4.1,4.1,0,0,0,55.4,182L43,183.05V189l12.4-1.07a4.7,4.7,0,0,0,2.5-1,3,3,0,0,0,1.2-2.25,2.28,2.28,0,0,0-1.15-2.1Zm-62.26,35.5-18.4,1.57-2.4,8-20.8,1.78L-29,173.38l31-2.65,16.9,53.15-20.8,1.78-2.4-7.59Zm-9.21-28.91-4.9,16.32,9.81-.84-4.91-15.48ZM-55,230.24l-19,1.63V193.44l-6.54.56-19.72,1.69a1.61,1.61,0,0,0-1.21.61,1.15,1.15,0,0,0,.4,1.37c1.88,1.52,3.77,2.92,5.69,4.19a35,35,0,0,1,5.78,5A13.7,13.7,0,0,1-85.88,215a16.57,16.57,0,0,1-1.55,8.68,19.1,19.1,0,0,1-6,7.16,20.34,20.34,0,0,1-10.1,3.61l-15.6,1.29c-11.83,1.1-18.61,1.64-18.61,1.64-19.45,1.67-35.22,18.79-35.22,38.24V623.41c0,19.33,15.67,33.65,35,32l585-50.15v.44l1-.08,8.7,11.65,8.8-13.15,21.9-1.88-19.2,29,19.2,25.65-24,2.06-8.7-11.66-8.8,13.16L424,662.28l19.2-28.95-8.26-11L-140,671.58c-27.62,2.37-50-18.1-50-45.71v-350c0-27.57,22.35-51.84,49.93-54.2,0,0,3.2-.23,9.07-.72v-.58l22.2-1.9a1.39,1.39,0,0,0,1.2-.61c.27-.68.13-1.17-.4-1.46a51.09,51.09,0,0,1-6.85-4.21c-1.83-1.38-3.25-2.42-4.25-3.14a12.15,12.15,0,0,1-3.65-4.39,16.8,16.8,0,0,1-1.7-5.75,18.79,18.79,0,0,1,.35-6.23,15.31,15.31,0,0,1,2.6-5.77,16.09,16.09,0,0,1,5.1-4.44,18.73,18.73,0,0,1,7.8-2.22l19.6-1.68,48-4.11v16.4L-55,192v38.22ZM521,634.11l-30,2.57V623.57L521,621v13.11Zm29.5-16.38,6.5-21.46,19.5-1.67L582.9,615l6.5-21.45,19-1.63-16.9,56-19,1.63-5.8-18.31-5.8,19.3-19,1.63L525,599l19.1-1.64,6.4,20.35ZM631,645.25,611,647V591l20-1.72v56Zm40-33.61V586.53l20-1.71v54.64l-19.55,1.68L654,618.77v23.81l-20,1.71V589.65L653.55,588,671,611.64Z" transform="translate(190 -105.53)"/></svg>